<mxfile host="app.diagrams.net" modified="2024-05-27T18:43:53.289Z" agent="Mozilla/5.0 (Windows NT 10.0; Win64; x64; rv:109.0) Gecko/20100101 Firefox/115.0" etag="nBgwhyvMgRM7l028kUKP" version="24.4.0" type="github">
  <diagram id="C5RBs43oDa-KdzZeNtuy" name="Page-1">
    <mxGraphModel dx="2261" dy="902" grid="1" gridSize="10" guides="1" tooltips="1" connect="1" arrows="1" fold="1" page="1" pageScale="1" pageWidth="827" pageHeight="1169" math="0" shadow="0">
      <root>
        <mxCell id="WIyWlLk6GJQsqaUBKTNV-0" />
        <mxCell id="WIyWlLk6GJQsqaUBKTNV-1" parent="WIyWlLk6GJQsqaUBKTNV-0" />
        <mxCell id="TOOYitAzIHO0Ul-bosS0-15" value="" style="group;align=left;fontSize=7;" vertex="1" connectable="0" parent="WIyWlLk6GJQsqaUBKTNV-1">
          <mxGeometry x="-790" y="170" width="210" height="120" as="geometry" />
        </mxCell>
        <mxCell id="TOOYitAzIHO0Ul-bosS0-13" value="&lt;div&gt;«interface»&lt;br&gt;&lt;/div&gt;&lt;div&gt;DrawPile&lt;/div&gt;" style="html=1;whiteSpace=wrap;" vertex="1" parent="TOOYitAzIHO0Ul-bosS0-15">
          <mxGeometry width="210" height="43.63636363636363" as="geometry" />
        </mxCell>
        <mxCell id="TOOYitAzIHO0Ul-bosS0-14" value="&lt;font size=&quot;1&quot; face=&quot;Georgia&quot;&gt;&lt;b&gt;getOneCardFromTheDrawPile();&amp;nbsp; Card&lt;br&gt;&lt;/b&gt;&lt;/font&gt;" style="rounded=0;whiteSpace=wrap;html=1;" vertex="1" parent="TOOYitAzIHO0Ul-bosS0-15">
          <mxGeometry y="37.5" width="210" height="82.5" as="geometry" />
        </mxCell>
        <mxCell id="TOOYitAzIHO0Ul-bosS0-16" value="" style="group;align=left;fontSize=7;" vertex="1" connectable="0" parent="WIyWlLk6GJQsqaUBKTNV-1">
          <mxGeometry x="-800" y="340" width="210" height="120" as="geometry" />
        </mxCell>
        <mxCell id="TOOYitAzIHO0Ul-bosS0-17" value="&lt;div&gt;«interface»&lt;br&gt;&lt;/div&gt;&lt;div&gt;Player&lt;/div&gt;" style="html=1;whiteSpace=wrap;" vertex="1" parent="TOOYitAzIHO0Ul-bosS0-16">
          <mxGeometry width="210" height="43.63636363636363" as="geometry" />
        </mxCell>
        <mxCell id="TOOYitAzIHO0Ul-bosS0-18" value="&lt;font size=&quot;1&quot; face=&quot;Georgia&quot;&gt;&lt;b&gt;Card getOneCardFromTheDrawPile();&lt;/b&gt;&lt;/font&gt;" style="rounded=0;whiteSpace=wrap;html=1;" vertex="1" parent="TOOYitAzIHO0Ul-bosS0-16">
          <mxGeometry y="37.5" width="210" height="82.5" as="geometry" />
        </mxCell>
        <mxCell id="TOOYitAzIHO0Ul-bosS0-20" value="" style="group;align=left;fontSize=7;" vertex="1" connectable="0" parent="WIyWlLk6GJQsqaUBKTNV-1">
          <mxGeometry x="-790" y="490" width="210" height="120" as="geometry" />
        </mxCell>
        <mxCell id="TOOYitAzIHO0Ul-bosS0-21" value="&lt;div&gt;«interface»&lt;br&gt;&lt;/div&gt;&lt;div&gt;DrawPile&lt;/div&gt;" style="html=1;whiteSpace=wrap;" vertex="1" parent="TOOYitAzIHO0Ul-bosS0-20">
          <mxGeometry width="210" height="43.63636363636363" as="geometry" />
        </mxCell>
        <mxCell id="TOOYitAzIHO0Ul-bosS0-22" value="&lt;font size=&quot;1&quot; face=&quot;Georgia&quot;&gt;&lt;b&gt;Card getOneCardFromTheDrawPile();&lt;/b&gt;&lt;/font&gt;" style="rounded=0;whiteSpace=wrap;html=1;" vertex="1" parent="TOOYitAzIHO0Ul-bosS0-20">
          <mxGeometry y="37.5" width="210" height="82.5" as="geometry" />
        </mxCell>
        <mxCell id="TOOYitAzIHO0Ul-bosS0-23" value="" style="group;align=left;fontSize=7;" vertex="1" connectable="0" parent="WIyWlLk6GJQsqaUBKTNV-1">
          <mxGeometry x="-800" y="660" width="210" height="120" as="geometry" />
        </mxCell>
        <mxCell id="TOOYitAzIHO0Ul-bosS0-24" value="&lt;div&gt;«interface»&lt;br&gt;&lt;/div&gt;&lt;div&gt;DrawPile&lt;/div&gt;" style="html=1;whiteSpace=wrap;" vertex="1" parent="TOOYitAzIHO0Ul-bosS0-23">
          <mxGeometry width="210" height="43.63636363636363" as="geometry" />
        </mxCell>
        <mxCell id="TOOYitAzIHO0Ul-bosS0-25" value="&lt;font size=&quot;1&quot; face=&quot;Georgia&quot;&gt;&lt;b&gt;Card getOneCardFromTheDrawPile();&lt;/b&gt;&lt;/font&gt;" style="rounded=0;whiteSpace=wrap;html=1;" vertex="1" parent="TOOYitAzIHO0Ul-bosS0-23">
          <mxGeometry y="37.5" width="210" height="82.5" as="geometry" />
        </mxCell>
        <mxCell id="TOOYitAzIHO0Ul-bosS0-26" value="" style="group;align=left;fontSize=7;" vertex="1" connectable="0" parent="WIyWlLk6GJQsqaUBKTNV-1">
          <mxGeometry x="-550" y="170" width="370" height="230" as="geometry" />
        </mxCell>
        <mxCell id="TOOYitAzIHO0Ul-bosS0-27" value="&lt;div&gt;«interface»&lt;br&gt;&lt;/div&gt;&lt;div&gt;Card&lt;/div&gt;" style="html=1;whiteSpace=wrap;" vertex="1" parent="TOOYitAzIHO0Ul-bosS0-26">
          <mxGeometry width="370" height="43.64" as="geometry" />
        </mxCell>
        <mxCell id="TOOYitAzIHO0Ul-bosS0-28" value="&lt;div align=&quot;left&quot;&gt;&lt;font size=&quot;1&quot; face=&quot;Georgia&quot;&gt;&lt;b&gt;&amp;nbsp;&amp;nbsp;&amp;nbsp;&amp;nbsp;&amp;nbsp;&amp;nbsp;&amp;nbsp; + returnTheTypeOfTheCard(); &lt;/b&gt;&lt;/font&gt;&lt;font size=&quot;1&quot; face=&quot;Georgia&quot;&gt;&lt;b&gt;String &lt;/b&gt;&lt;/font&gt;&lt;br&gt;&lt;font size=&quot;1&quot; face=&quot;Georgia&quot;&gt;&lt;b&gt;&amp;nbsp;&amp;nbsp;&amp;nbsp;&amp;nbsp;&amp;nbsp;&amp;nbsp;&amp;nbsp; +getTheNumberOfCardsOfThisTypeRequiredForOneCoin(); &lt;/b&gt;&lt;/font&gt;&lt;font size=&quot;1&quot; face=&quot;Georgia&quot;&gt;&lt;b&gt;int &lt;/b&gt;&lt;/font&gt;&lt;br&gt;&lt;font size=&quot;1&quot; face=&quot;Georgia&quot;&gt;&lt;b&gt;&amp;nbsp;&amp;nbsp;&amp;nbsp;&amp;nbsp;&amp;nbsp;&amp;nbsp;&amp;nbsp; +getTheNumberOfCardsOfThisTypeRequiredForTwoCoins(); &lt;/b&gt;&lt;/font&gt;&lt;font size=&quot;1&quot; face=&quot;Georgia&quot;&gt;&lt;b&gt;int &lt;/b&gt;&lt;/font&gt;&lt;br&gt;&lt;font size=&quot;1&quot; face=&quot;Georgia&quot;&gt;&lt;b&gt;&amp;nbsp;&amp;nbsp;&amp;nbsp;&amp;nbsp;&amp;nbsp;&amp;nbsp;&amp;nbsp; +getTheNumberOfCardsOfThisTypeRequiredForThreeCoins(); &lt;/b&gt;&lt;/font&gt;&lt;font size=&quot;1&quot; face=&quot;Georgia&quot;&gt;&lt;b&gt;int &lt;/b&gt;&lt;/font&gt;&lt;br&gt;&lt;font size=&quot;1&quot; face=&quot;Georgia&quot;&gt;&lt;b&gt;&amp;nbsp;&amp;nbsp;&amp;nbsp;&amp;nbsp;&amp;nbsp;&amp;nbsp;&amp;nbsp; +getTheNumberOfCardsOfThisTypeRequiredForFourPoints(); int&lt;/b&gt;&lt;/font&gt;&lt;br&gt;&lt;/div&gt;" style="rounded=0;whiteSpace=wrap;html=1;align=left;" vertex="1" parent="TOOYitAzIHO0Ul-bosS0-26">
          <mxGeometry y="37.5" width="370" height="132.5" as="geometry" />
        </mxCell>
      </root>
    </mxGraphModel>
  </diagram>
</mxfile>
